<svg width="48" height="48" viewBox="0 0 48 48" fill="none" xmlns="http://www.w3.org/2000/svg">
  <path d="M4 28C8 20 14 14 20 18C26 22 28 30 34 26C40 22 44 16 46 12" stroke="#22c55e" stroke-width="3" stroke-linecap="round"/>
  <path d="M2 34C6 28 12 22 18 26C24 30 26 36 32 32C38 28 42 22 44 18" stroke="#22c55e" stroke-width="2.5" stroke-linecap="round" opacity="0.5"/>
  <path d="M6 40C10 36 14 32 18 34C22 36 24 40 28 38C32 36 36 32 38 30" stroke="#22c55e" stroke-width="2" stroke-linecap="round" opacity="0.25"/>
</svg>
